PathFileType	4	(X/Y/Z)	D:\Long Term Storage\D'Arcy Smith\Coord20.trc
DataRate	CameraRate	NumFrames	NumMarkers	Units	OrigDataRate	OrigDataStartFrame	OrigNumFrames
120.00	120.00	      50	4	mm	120.00	3025	      4839
Frame#	Time	M1			M2			M3			M4			
		X1	Y1	Z1	X2	Y2	Z2	X3	Y3	Z3	X4	Y4	Z4	

3025	25.200	597.22260	381.66718	520.57141	885.57642	363.04309	380.57834							
3026	25.208	598.42749	372.65729	498.30142	886.91467	356.15070	357.83743							
3027	25.217	599.07214	364.66025	475.50485	888.58752	350.43646	334.85983							
3028	25.225	598.91870	358.08853	451.02359	890.61591	346.29660	311.14395							
3029	25.233	598.60736	352.81583	425.83923	892.96106	343.76968	287.71942							
3030	25.242	597.78693	349.01959	400.17432	895.43658	343.36945	263.73230							
3031	25.250	596.55029	347.08423	370.93405	898.21204	344.42343	240.07265							
3032	25.258	594.71991	346.71332	344.15820	901.41968	346.55969	217.66351							
3033	25.267	592.69373	347.96167	316.96982	904.83081	350.41962	195.89969							
3034	25.275	590.00226	350.97800	289.67853	908.34833	355.44116	175.16797							
3035	25.283	587.07635	355.79120	262.50903	911.78094	361.66629	155.17479							
3036	25.292	583.58679	362.64069	235.89172	915.25250	368.76227	136.43745							
3037	25.300	579.35541	370.98175	209.74397	918.89398	376.59589	118.57529							
3038	25.308	574.55212	380.44064	184.59714	922.15753	384.95682	101.93369							
3039	25.317	569.35052	392.06454	160.26808	925.38123	394.33395	84.92760							
3040	25.325	563.61627	405.22653	136.09053	928.66925	403.18259	69.69971							
3041	25.333	558.02551	419.53851	114.45871	931.47412	412.24991	56.49806							
3042	25.342	552.16748	436.07184	93.07033	934.25366	421.27533	44.47554							
3043	25.350	545.71411	452.68854	73.82175	936.58142	430.17990	33.49036							
3044	25.358	539.74805	471.20047	55.68876	938.59149	438.76761	23.72936							
3045	25.367	533.85474	490.03973	39.20284	940.36963	446.97208	15.03421							
3046	25.375	528.03668	508.85565	24.42235	941.76868	454.56570	7.45106							
3047	25.383	522.14923	528.08191	10.88881	942.69617	461.49570	0.99782							
3048	25.392	516.59625	546.82568	0.02825	943.08966	467.74963	-4.53730							
3049	25.400	511.42303	565.60205	-9.93637	943.08405	473.17535	-9.22975							
3050	25.408	506.75699	583.87677	-18.24601	942.52460	477.67444	-12.92975							
3051	25.417	502.81906	600.68677	-24.86669	941.67999	480.67038	-15.49198							
3052	25.425	499.17963	617.10657	-30.68257	940.35382	483.61246	-17.80498							
3053	25.433	496.09372	632.34344	-35.26767	938.46820	485.09702	-18.99437							
3054	25.442	493.31952	646.30414	-39.08770	936.33038	485.45181	-19.16905							
3055	25.450	491.26688	659.05609	-41.92059	933.86365	484.71738	-18.55766							
3056	25.458	489.59354	670.07318	-44.18790	930.93054	482.97705	-16.96611							
3057	25.467	488.50769	679.68683	-46.15982	927.82574	480.13522	-14.58837							
3058	25.475	488.00345	687.76886	-47.69827	924.42883	476.45053	-11.35239							
3059	25.483	487.89200	694.22015	-49.07849	921.23273	472.07867	-7.43716							
3060	25.492	488.28967	698.91229	-50.05951	917.41711	466.62268	-2.68384							
3061	25.500	489.15125	702.02747	-50.87429	913.62213	460.42737	3.45120							
3062	25.508	490.57501	703.28650	-51.51023	909.75592	453.48831	10.25828							
3063	25.517	492.35333	702.48804	-51.80900	905.96490	445.98810	18.32569							
3064	25.525	494.27438	699.64362	-51.61816	902.27649	437.80072	27.35526							
3065	25.533	496.85620	694.53198	-50.39235	898.57697	429.08786	37.49495							
3066	25.542	499.41672	688.77716	-50.88869	895.15002	419.88312	48.90723							
3067	25.550	502.69247	679.07080	-49.11969	891.77332	410.36578	61.45467							
3068	25.558	505.99026	668.32776	-47.19867	888.89825	400.53247	75.41267							
3069	25.567	509.20432	655.65588	-44.58567	886.23907	390.78412	90.51241							
3070	25.575	512.78284	641.60315	-41.18698	884.15759	380.65414	107.03395							
3071	25.583	516.62952	625.48993	-35.58234	882.42572	371.18167	124.77866							
3072	25.592	520.52643	608.04968	-29.95087	881.02649	362.16528	143.48933							
3073	25.600	523.74200	589.71497	-23.14860	880.30206	354.11169	162.82793							
3074	25.608	527.51459	570.31824	-14.95506	880.32196	346.05325	185.82433							
